<?xml version="1.0" standalone="no"?>
<!DOCTYPE svg PUBLIC "-//W3C//DTD SVG 20010904//EN"
 "http://www.w3.org/TR/2001/REC-SVG-20010904/DTD/svg10.dtd">
<svg version="1.0" xmlns="http://www.w3.org/2000/svg"
 width="624.000000pt" height="624.000000pt" viewBox="0 0 624.000000 624.000000"
 preserveAspectRatio="xMidYMid meet">
<metadata>
Created by potrace 1.11, written by Peter Selinger 2001-2013
</metadata>
<g transform="translate(0.000000,624.000000) scale(0.100000,-0.100000)"
fill="#000000" stroke="none">
<path d="M4577 6104 c-1 -1 -29 -4 -62 -7 -117 -12 -236 -48 -350 -104 -123
-62 -153 -95 -200 -229 -45 -130 -99 -273 -126 -331 -10 -24 -19 -45 -19 -47
0 -13 -162 -346 -214 -441 -78 -139 -103 -183 -124 -216 -9 -15 -33 -53 -52
-85 -19 -33 -38 -63 -42 -69 -23 -28 -108 -158 -108 -165 0 -5 -3 -10 -7 -12
-5 -1 -21 -23 -38 -48 -16 -25 -70 -94 -120 -155 -49 -60 -93 -114 -98 -120
-4 -5 -17 -22 -30 -36 -12 -14 -38 -45 -57 -69 -32 -39 -315 -383 -340 -413
-24 -28 -53 -64 -78 -96 -15 -18 -35 -43 -46 -55 -10 -11 -35 -41 -55 -66 -20
-25 -38 -47 -41 -50 -3 -3 -25 -30 -50 -60 -25 -30 -47 -57 -50 -60 -3 -3 -24
-27 -45 -55 -22 -27 -42 -52 -45 -55 -3 -3 -23 -27 -45 -55 -56 -70 -67 -83
-95 -114 -14 -15 -41 -47 -60 -71 -19 -24 -51 -63 -70 -86 -19 -23 -42 -50
-50 -60 -8 -11 -60 -73 -115 -139 -54 -66 -126 -153 -160 -194 -33 -40 -69
-83 -80 -95 -11 -12 -38 -44 -60 -71 -22 -28 -44 -55 -50 -61 -6 -6 -27 -31
-46 -54 -18 -23 -39 -47 -44 -54 -6 -6 -76 -90 -156 -186 -160 -191 -182 -218
-201 -240 -7 -8 -39 -46 -72 -85 -32 -38 -61 -72 -65 -75 -4 -3 -22 -25 -41
-50 -19 -24 -47 -58 -62 -75 -15 -16 -70 -82 -124 -145 -53 -63 -119 -140
-145 -171 -27 -31 -59 -68 -71 -84 -12 -15 -31 -37 -42 -49 -12 -12 -39 -43
-61 -70 -22 -26 -49 -58 -60 -70 -29 -32 -98 -115 -134 -160 -17 -22 -34 -51
-37 -65 -3 -14 -7 -34 -9 -44 -11 -56 70 -187 116 -187 10 0 20 -4 23 -8 7
-12 89 -5 127 11 19 8 63 38 99 66 78 62 92 73 112 86 8 6 73 49 144 96 128
86 286 182 419 255 39 21 88 48 110 60 56 32 362 188 470 241 50 24 118 58
153 76 l62 31 73 -71 c103 -103 203 -183 225 -183 7 0 12 -3 12 -8 0 -4 9 -12
19 -17 11 -6 55 -29 98 -51 69 -37 252 -111 293 -119 8 -2 51 -12 95 -23 76
-20 146 -33 245 -48 282 -41 765 -35 970 12 14 3 39 8 55 11 17 2 44 8 60 13
17 5 41 11 55 14 82 15 266 84 407 152 89 44 276 162 337 214 90 77 187 170
236 226 106 122 182 228 265 369 89 152 244 489 259 564 2 9 8 29 15 45 14 34
67 207 86 281 8 28 18 65 24 83 5 17 8 32 5 32 -3 0 0 8 5 18 5 9 12 33 15 53
3 20 8 42 10 50 3 8 8 25 10 39 8 39 15 70 20 88 3 9 8 31 11 47 6 34 12 69
20 105 3 14 8 36 11 50 3 14 7 36 9 50 2 14 10 63 19 110 9 47 18 99 20 115 3
17 17 102 31 190 14 88 28 174 31 190 2 17 6 41 9 55 2 14 6 41 9 60 3 19 17
107 31 195 15 88 28 169 30 180 4 27 15 96 20 120 35 201 108 505 154 645 49
146 51 165 26 226 -26 63 -59 89 -152 120 -140 47 -227 108 -389 271 -251 252
-578 425 -869 459 -56 6 -193 12 -198 8z m222 -400 c199 -43 434 -184 601
-361 91 -96 211 -194 303 -247 58 -33 67 -43 62 -60 -32 -110 -58 -217 -88
-361 -29 -135 -31 -144 -52 -270 -23 -128 -24 -138 -29 -160 -2 -11 -9 -56
-16 -100 -7 -44 -13 -87 -15 -95 -1 -8 -6 -37 -10 -65 -5 -27 -9 -52 -10 -55
0 -3 -5 -32 -9 -65 -4 -32 -10 -68 -12 -80 -2 -11 -7 -36 -10 -55 -10 -65 -65
-395 -70 -420 -3 -14 -7 -36 -9 -50 -2 -14 -9 -50 -15 -80 -6 -30 -14 -68 -17
-85 -27 -162 -148 -620 -190 -725 -4 -8 -7 -17 -8 -20 -2 -9 -45 -124 -54
-145 -177 -413 -336 -641 -586 -844 -191 -154 -438 -269 -678 -317 -10 -2 -26
-5 -35 -8 -9 -3 -37 -7 -62 -10 -25 -3 -56 -8 -70 -11 -41 -8 -237 -18 -360
-18 -270 1 -428 22 -715 97 -5 1 -27 10 -49 19 -21 9 -40 17 -42 17 -34 0
-258 136 -303 183 l-23 25 83 40 c46 22 145 70 219 106 74 36 140 66 147 66 6
0 13 3 15 8 2 6 73 43 88 47 3 0 21 9 40 20 19 11 37 19 40 20 10 1 399 204
415 215 6 4 44 26 85 48 84 45 240 136 255 149 6 5 35 24 65 42 55 35 268 182
304 211 181 145 315 282 406 415 100 147 163 308 165 418 0 20 2 37 6 37 7 0
3 155 -5 200 -21 107 -58 212 -107 302 -37 68 -144 222 -179 258 -8 9 -42 45
-76 81 -52 55 -98 98 -214 200 -14 12 -76 60 -138 106 -102 77 -112 87 -99
102 14 15 124 198 140 231 4 8 17 31 29 50 69 113 257 510 319 675 17 44 37
94 44 110 7 17 20 55 30 85 9 30 26 63 37 72 23 21 128 55 196 64 26 3 48 7
49 8 8 7 149 -6 212 -20z m-1179 -1684 c3 -3 25 -21 50 -40 53 -40 194 -164
228 -200 84 -89 112 -121 147 -170 181 -247 183 -469 6 -704 -133 -176 -347
-347 -706 -564 -291 -176 -625 -347 -1370 -702 -71 -34 -164 -78 -205 -98 -41
-20 -77 -36 -80 -37 -3 0 -11 -4 -19 -9 -7 -5 -63 -33 -125 -63 -61 -30 -149
-73 -196 -96 -47 -23 -88 -45 -91 -50 -3 -5 -10 -9 -15 -9 -5 0 -27 -9 -49
-20 l-40 -20 25 28 c14 16 27 31 31 34 3 3 50 59 104 125 55 66 102 122 105
125 3 3 27 32 55 65 27 33 54 65 60 71 5 7 17 20 25 31 28 35 214 258 225 269
5 6 26 30 45 54 19 24 40 48 45 54 6 6 38 45 70 86 33 41 63 77 67 80 3 3 21
23 38 45 17 22 49 60 70 85 21 25 120 144 220 265 100 121 189 229 198 240 9
11 46 56 82 100 36 44 70 85 75 91 6 6 24 28 40 49 17 20 35 42 40 49 6 6 42
49 80 96 38 47 72 87 75 90 3 3 31 37 62 75 31 39 67 82 80 97 13 15 35 42 49
60 25 31 180 218 217 263 9 11 33 40 52 65 19 25 44 55 55 67 11 12 33 38 49
57 l29 35 46 -32 c25 -18 48 -34 51 -37z"/>
</g>
</svg>
